# xmcd
#
# Track frame offsets:
#	150
#	12042
#	32610
#	51895
#	74590
#	94115
#	113337
#	130307
#	147777
#	168310
#	190135
#	210370
#	231557
#	246462
#	267955
#	287952
#	308860
#
# Disc length: 4370 seconds
#
# Revision: 3
# Processed by: cddbd v1.5.2PL0 Copyright (c) Steve Scherf et al.
# Submitted via: EasyCDDAExtractor 10.0.5.1
#
DISCID=f5111011
DTITLE=Various Artist - 感冒前後(新曲+精選)
DYEAR=1992
DGENRE=Pop-Folk
TTITLE0=湯寶如 - 今生今世
TTITLE1=湯寶如 - 感冒
TTITLE2=湯寶如 - 我們的近況
TTITLE3=湯寶如 - 緣份的天空
TTITLE4=湯寶如 - 我和秋天有個約會
TTITLE5=湯寶如 - 活着就是等待
TTITLE6=湯寶如 - 絕對是個夢
TTITLE7=湯寶如 - 哭泣瑪利
TTITLE8=湯寶如 - 越難越愛你
TTITLE9=湯寶如 - 雪亮眼晴
TTITLE10=湯寶如 - 這是人生
TTITLE11=湯寶如 - 沒有回憶的冬季
TTITLE12=湯寶如 - 春去夏來
TTITLE13=湯寶如 - 還迎欲拒
TTITLE14=湯寶如、蘇永康 - 一起真的不易
TTITLE15=湯寶如、張學友 - 情濃半生
TTITLE16=湯寶如、張學友 - 相思風雨中
EXTD=YEAR: 1996 ID3G:  53
EXTT0=
EXTT1=
EXTT2=
EXTT3=
EXTT4=
EXTT5=
EXTT6=
EXTT7=
EXTT8=
EXTT9=
EXTT10=
EXTT11=
EXTT12=
EXTT13=
EXTT14=
EXTT15=
EXTT16=
PLAYORDER=
